# xmcd CD database file
#
# Track frame offsets:
#	150
#	16850
#	33475
#	46077
#	62835
#
# Disc length: 1055 seconds
#
# Revision: 0
# Processed by: cddbd v1.5.1PL0 Copyright (c) Steve Scherf et al.
# Submitted via: CDex 1.51
#
DISCID=35041d05
DTITLE=Cisco Kid - Freak On
DYEAR=1997
DGENRE=New Age
TTITLE0=Freak On (Album Version)
TTITLE1=Freak On (Super Booty Mix)
TTITLE2=Freak On (Housin' Yo Ass)
TTITLE3=Freak On (Instrumental)
TTITLE4=Freak On (Accapella)
EXTD=YEAR: 1997
EXTT0=
EXTT1=
EXTT2=
EXTT3=
EXTT4=
PLAYORDER=
